<?xml version="1.0" encoding="UTF-8" standalone="no"?>
<svg viewBox="0 0 20 20" version="1.1" xmlns="http://www.w3.org/2000/svg" xmlns:xlink="http://www.w3.org/1999/xlink">
    <!-- Generator: sketchtool 39.1 (31720) - http://www.bohemiancoding.com/sketch -->
    <title>1F1EE004-3EAF-4546-BD3B-B3469BDABD1F</title>
    <desc>Created with sketchtool.</desc>
    <defs></defs>
    <g id="Tweet" stroke="none" stroke-width="1" fill="none" fill-rule="evenodd">
        <g id="Tweets-Flow" transform="translate(-68.000000, -460.000000)" stroke="#CCCCCC">
            <g id="Group-16" transform="translate(18.000000, 194.000000)">
                <g id="Group-11">
                    <g id="Group-3" transform="translate(50.000000, 50.000000)">
                        <g id="Group" transform="translate(0.000000, 216.000000)">
                            <g id="Comments-Like-btn-Copy">
                                <g id="like">
                                    <path d="M15.3103027,8.64129639 C14.592102,8.19708252 13.8049871,8.02181641 13.8049871,8.02181641 L11.4548713,8.01717643 C11.5923296,6.00544909 12.3718155,5.03003803 12.0026527,3.93437892 C11.5154219,2.48831233 9.93173614,2.5000015 9.93173614,2.5000015 L9.34086143,4.90895249 C9.34086143,4.90895249 8.97651645,6.06115389 7.8133248,7.67723398 C7.00392042,8.80183347 6.30657959,9.0065918 6.30657959,9.0065918 L4.47819292,9.0065918 C4.22109045,9.0065918 4.0126724,9.21048308 4.0126724,9.46758538 L4.02944226,16.0455986 C4.02944226,16.3027307 4.23786031,16.4981748 4.49496278,16.4981748 L12.773008,16.4981748 C14.0837697,16.4981748 14.5574092,15.8438191 14.8482666,15.3587036 C15.5265175,14.2274119 16.401062,11.9455566 16.5068969,9.7142334 C16.5068969,9.7142334 16.0285034,9.08551025 15.3103027,8.64129639 Z" id="Fill-1"></path>
                                </g>
                            </g>
                        </g>
                    </g>
                </g>
            </g>
        </g>
    </g>
</svg>